<svg height="660" width="660"
    xmlns="http://www.w3.org/2000/svg"
    xmlns:xlink="http://www.w3.org/1999/xlink"
    xmlns:ev="http://www.w3.org/2001/xml-events">
<title>Original Top Strand</title>
<rect x="0" y="0" width="660" height="660" fill="white" />
<text x="330" y="20" text-anchor="middle">Original Top Strand</text>
<line x1="80" y1="80" x2="80" y2="580" stroke="black" />
<line x1="80" y1="580" x2="580" y2="580" stroke="black" />
<text x="15" y="330" transform="rotate(270 15, 330)" text-anchor="middle" dominant-baseline="text-before-edge">CpG Methylation %</text>
<text x="330" y="620" text-anchor="middle">Position along mapped read (5'->3' of + strand)</text>
<line x1="80" y1="580" x2="80" y2="585" stroke="black" />
<text x="80" y="600" text-anchor="middle">0</text>
<line x1="205.000000" y1="80" x2="205.000000" y2="580" stroke-dasharray="5 5" stroke="grey" />
<line x1="205.000000" y1="580" x2="205.000000" y2="585" stroke="black" />
<text x="205.000000" y="600" text-anchor="middle">25</text>
<line x1="330.000000" y1="80" x2="330.000000" y2="580" stroke-dasharray="5 5" stroke="grey" />
<line x1="330.000000" y1="580" x2="330.000000" y2="585" stroke="black" />
<text x="330.000000" y="600" text-anchor="middle">50</text>
<line x1="455.000000" y1="80" x2="455.000000" y2="580" stroke-dasharray="5 5" stroke="grey" />
<line x1="455.000000" y1="580" x2="455.000000" y2="585" stroke="black" />
<text x="455.000000" y="600" text-anchor="middle">75</text>
<line x1="580.000000" y1="80" x2="580.000000" y2="580" stroke-dasharray="5 5" stroke="grey" />
<line x1="580.000000" y1="580" x2="580.000000" y2="585" stroke="black" />
<text x="580.000000" y="600" text-anchor="middle">100</text>
<line x1="80" y1="580.000000" x2="75" y2="580.000000" stroke="black" />
<text x="55" y="580.000000" text-anchor="middle" dominant-baseline="middle">0.65</text>
<line x1="80" y1="508.571429" x2="75" y2="508.571429" stroke="black" />
<text x="55" y="508.571429" text-anchor="middle" dominant-baseline="middle">0.70</text>
<line x1="80" y1="437.142857" x2="75" y2="437.142857" stroke="black" />
<text x="55" y="437.142857" text-anchor="middle" dominant-baseline="middle">0.75</text>
<line x1="80" y1="365.714286" x2="75" y2="365.714286" stroke="black" />
<text x="55" y="365.714286" text-anchor="middle" dominant-baseline="middle">0.80</text>
<line x1="80" y1="294.285714" x2="75" y2="294.285714" stroke="black" />
<text x="55" y="294.285714" text-anchor="middle" dominant-baseline="middle">0.85</text>
<line x1="80" y1="222.857143" x2="75" y2="222.857143" stroke="black" />
<text x="55" y="222.857143" text-anchor="middle" dominant-baseline="middle">0.90</text>
<line x1="80" y1="151.428571" x2="75" y2="151.428571" stroke="black" />
<text x="55" y="151.428571" text-anchor="middle" dominant-baseline="middle">0.95</text>
<line x1="80" y1="80.000000" x2="75" y2="80.000000" stroke="black" />
<text x="55" y="80.000000" text-anchor="middle" dominant-baseline="middle">1.00</text>
<path d="M 85.050505 531.977309
  L 90.101010 474.200108
  L 95.151515 432.105993
  L 100.202020 456.564668
  L 105.252525 456.406100
  L 110.303030 479.929032
  L 115.353535 450.970826
  L 120.404040 450.084820
  L 125.454545 471.158746
  L 130.505051 454.716298
  L 135.555556 477.809572
  L 140.606061 455.736935
  L 145.656566 439.398812
  L 150.707071 441.415702
  L 155.757576 460.378518
  L 160.808081 452.362267
  L 165.858586 471.527876
  L 170.909091 467.225211
  L 175.959596 450.964808
  L 181.010101 456.929866
  L 186.060606 453.092280
  L 191.111111 449.386924
  L 196.161616 446.133324
  L 201.212121 448.836323
  L 206.262626 460.994921
  L 211.313131 459.990016
  L 216.363636 467.028528
  L 221.414141 470.818933
  L 226.464646 452.470377
  L 231.515152 457.815953
  L 236.565657 452.910593
  L 241.616162 423.160332
  L 246.666667 464.328388
  L 251.717172 451.220227
  L 256.767677 459.692800
  L 261.818182 459.026210
  L 266.868687 478.114854
  L 271.919192 437.435792
  L 276.969697 460.548126
  L 282.020202 424.178873
  L 287.070707 476.394434
  L 292.121212 462.429582
  L 297.171717 456.871981
  L 302.222222 433.560995
  L 307.272727 453.897060
  L 312.323232 431.616668
  L 317.373737 455.557012
  L 322.424242 446.749374
  L 327.474747 456.186826
  L 332.525253 429.492275
  L 337.575758 466.765296
  L 342.626263 441.776574
  L 347.676768 455.855471
  L 352.727273 439.784141
  L 357.777778 450.772897
  L 362.828283 450.898208
  L 367.878788 462.151727
  L 372.929293 455.418378
  L 377.979798 456.396875
  L 383.030303 453.801223
  L 388.080808 470.545572
  L 393.131313 449.833259
  L 398.181818 456.445174
  L 403.232323 450.506399
  L 408.282828 437.909340
  L 413.333333 432.826117
  L 418.383838 469.975219
  L 423.434343 457.302868
  L 428.484848 461.748606
  L 433.535354 469.897290
  L 438.585859 453.323883
  L 443.636364 460.936509
  L 448.686869 471.055735
  L 453.737374 440.705533
  L 458.787879 447.439795
  L 463.838384 462.766853
  L 468.888889 472.888083
  L 473.939394 455.729736
  L 478.989899 445.496526
  L 484.040404 439.558229
  L 489.090909 454.704920
  L 494.141414 449.642662
  L 499.191919 439.967829
  L 504.242424 420.480117
  L 509.292929 437.349070
  L 514.343434 442.295312
  L 519.393939 469.489178
  L 524.444444 457.090483
  L 529.494949 427.871658
  L 534.545455 463.757414
  L 539.595960 425.435422
  L 544.646465 447.895113
  L 549.696970 451.686574
  L 554.747475 429.185037
  L 559.797980 450.219872
  L 564.848485 424.572223
  L 569.898990 436.110919
  L 574.949495 451.096578
  L 580.000000 465.497332
  L 580.000000 372.067664
  L 574.949495 361.152992
  L 569.898990 345.971152
  L 564.848485 338.045228
  L 559.797980 360.733591
  L 554.747475 342.472767
  L 549.696970 363.483210
  L 544.646465 361.640083
  L 539.595960 341.036709
  L 534.545455 374.803049
  L 529.494949 343.121448
  L 524.444444 370.986166
  L 519.393939 379.980969
  L 514.343434 356.448111
  L 509.292929 352.113367
  L 504.242424 338.061356
  L 499.191919 354.353638
  L 494.141414 363.760795
  L 489.090909 369.301763
  L 484.040404 354.925925
  L 478.989899 361.230623
  L 473.939394 370.124980
  L 468.888889 386.240037
  L 463.838384 377.229002
  L 458.787879 362.630332
  L 453.737374 355.432673
  L 448.686869 384.383324
  L 443.636364 374.388160
  L 438.585859 368.039534
  L 433.535354 383.146017
  L 428.484848 376.257923
  L 423.434343 371.847842
  L 418.383838 383.581629
  L 413.333333 349.736874
  L 408.282828 353.933333
  L 403.232323 368.255514
  L 398.181818 371.081884
  L 393.131313 364.700877
  L 388.080808 383.895390
  L 383.030303 369.404420
  L 377.979798 372.734840
  L 372.929293 370.180193
  L 367.878788 378.033412
  L 362.828283 365.786203
  L 357.777778 366.671239
  L 352.727273 357.922487
  L 347.676768 371.648456
  L 342.626263 358.332708
  L 337.575758 382.201944
  L 332.525253 347.705519
  L 327.474747 371.915807
  L 322.424242 363.067708
  L 317.373737 371.769718
  L 312.323232 351.378855
  L 307.272727 368.957187
  L 302.222222 350.476967
  L 297.171717 372.831875
  L 292.121212 376.882277
  L 287.070707 390.465072
  L 282.020202 343.107329
  L 276.969697 375.436551
  L 271.919192 354.789626
  L 266.868687 393.320825
  L 261.818182 374.060158
  L 256.767677 375.400457
  L 251.717172 367.620549
  L 246.666667 379.728103
  L 241.616162 340.739068
  L 236.565657 370.407908
  L 231.515152 372.260778
  L 226.464646 369.277748
  L 221.414141 385.569255
  L 216.363636 382.765223
  L 211.313131 376.905553
  L 206.262626 377.095340
  L 201.212121 364.591362
  L 196.161616 363.670279
  L 191.111111 365.925900
  L 186.060606 368.535920
  L 181.010101 374.009250
  L 175.959596 368.556223
  L 170.909091 382.786019
  L 165.858586 386.075251
  L 160.808081 368.540306
  L 155.757576 375.299567
  L 150.707071 357.585276
  L 145.656566 355.822029
  L 140.606061 370.207475
  L 135.555556 393.670052
  L 130.505051 370.874589
  L 125.454545 388.411550
  L 120.404040 367.423863
  L 115.353535 364.580200
  L 110.303030 393.983291
  L 105.252525 372.884549
  L 100.202020 372.941743
  L 95.151515 352.947637
  L 90.101010 382.831346
  L 85.050505 451.889639
Z" fill="rgb(248,118,109)" fill-opacity="0.2"/>
<path d="M 85.050505 517.352173
  L 90.101010 464.281407
  L 95.151515 557.936588
  L 100.202020 499.643712
  L 105.252525 477.528568
  L 110.303030 507.995359
  L 115.353535 514.532603
  L 120.404040 568.590607
  L 125.454545 572.006017
  L 130.505051 524.261441
  L 135.555556 553.745354
  L 140.606061 514.288606
  L 145.656566 468.595289
  L 150.707071 571.163989
  L 155.757576 540.296125
  L 160.808081 547.447902
  L 165.858586 541.899445
  L 170.909091 487.619879
  L 175.959596 496.343809
  L 181.010101 489.279071
  L 186.060606 497.166693
  L 191.111111 507.076171
  L 196.161616 479.816165
  L 201.212121 534.217307
  L 206.262626 475.915208
  L 211.313131 517.667837
  L 216.363636 496.137323
  L 221.414141 463.287129
  L 226.464646 513.929551
  L 231.515152 537.746753
  L 236.565657 528.298057
  L 241.616162 462.324178
  L 246.666667 472.196493
  L 251.717172 499.783317
  L 256.767677 489.396486
  L 261.818182 505.462498
  L 266.868687 455.562232
  L 271.919192 446.800239
  L 276.969697 483.814620
  L 282.020202 507.312269
  L 287.070707 441.269355
  L 292.121212 519.295190
  L 297.171717 459.959421
  L 302.222222 437.485397
  L 307.272727 483.351466
  L 312.323232 453.818788
  L 317.373737 445.244734
  L 322.424242 454.164152
  L 327.474747 449.442906
  L 332.525253 481.857955
  L 337.575758 453.261852
  L 342.626263 477.697089
  L 347.676768 432.774246
  L 352.727273 488.370375
  L 357.777778 475.671629
  L 362.828283 451.209046
  L 367.878788 447.951217
  L 372.929293 444.473876
  L 377.979798 433.165802
  L 383.030303 471.600973
  L 388.080808 479.669303
  L 393.131313 458.439104
  L 398.181818 433.101907
  L 403.232323 451.483355
  L 408.282828 455.494345
  L 413.333333 474.938373
  L 418.383838 428.641505
  L 423.434343 474.213935
  L 428.484848 435.339096
  L 433.535354 454.761159
  L 438.585859 449.318228
  L 443.636364 481.206201
  L 448.686869 476.740299
  L 453.737374 419.230593
  L 458.787879 446.975878
  L 463.838384 430.830105
  L 468.888889 385.768159
  L 473.939394 414.299058
  L 478.989899 467.075635
  L 484.040404 436.360775
  L 489.090909 468.968669
  L 494.141414 454.805476
  L 499.191919 422.151359
  L 504.242424 475.641629
  L 509.292929 417.797634
  L 514.343434 415.037708
  L 519.393939 447.633736
  L 524.444444 449.310030
  L 529.494949 400.330930
  L 534.545455 412.398636
  L 539.595960 440.525704
  L 544.646465 423.126545
  L 549.696970 431.240945
  L 554.747475 429.918568
  L 559.797980 430.101954
  L 564.848485 413.901327
  L 569.898990 407.427960
  L 574.949495 413.213516
  L 580.000000 231.793877
  L 580.000000 177.826959
  L 574.949495 321.353090
  L 569.898990 320.717981
  L 564.848485 331.576478
  L 559.797980 339.585794
  L 554.747475 345.743478
  L 549.696970 339.297522
  L 544.646465 334.099712
  L 539.595960 352.636831
  L 534.545455 324.932284
  L 529.494949 314.894043
  L 524.444444 360.104888
  L 519.393939 355.658494
  L 514.343434 326.222304
  L 509.292929 328.546754
  L 504.242424 379.508426
  L 499.191919 332.414962
  L 494.141414 360.657358
  L 489.090909 371.104427
  L 484.040404 341.662790
  L 478.989899 370.375774
  L 473.939394 321.690858
  L 468.888889 294.995196
  L 463.838384 334.680811
  L 458.787879 347.339680
  L 453.737374 324.153370
  L 448.686869 376.064401
  L 443.636364 376.761535
  L 438.585859 346.710026
  L 433.535354 352.754646
  L 428.484848 332.743922
  L 423.434343 366.211723
  L 418.383838 327.903289
  L 413.333333 364.352313
  L 408.282828 349.197245
  L 403.232323 343.210403
  L 398.181818 325.239892
  L 393.131313 347.386277
  L 388.080808 369.183218
  L 383.030303 360.238407
  L 377.979798 321.747041
  L 372.929293 331.485517
  L 367.878788 333.424507
  L 362.828283 338.112807
  L 357.777778 356.102075
  L 352.727273 366.103616
  L 347.676768 316.426188
  L 342.626263 353.382077
  L 337.575758 332.123797
  L 332.525253 352.650619
  L 327.474747 327.526929
  L 322.424242 330.876105
  L 317.373737 317.842935
  L 312.323232 328.130901
  L 307.272727 347.893318
  L 302.222222 309.633894
  L 297.171717 325.936599
  L 292.121212 377.062375
  L 287.070707 306.784546
  L 282.020202 359.188386
  L 276.969697 342.445062
  L 271.919192 308.716936
  L 266.868687 313.431684
  L 261.818182 349.386598
  L 256.767677 338.451773
  L 251.717172 349.349045
  L 246.666667 324.120273
  L 241.616162 309.053302
  L 236.565657 365.889857
  L 231.515152 371.135341
  L 226.464646 352.208991
  L 221.414141 308.731763
  L 216.363636 334.393394
  L 211.313131 346.153258
  L 206.262626 311.698726
  L 201.212121 357.136359
  L 196.161616 308.377056
  L 191.111111 330.967596
  L 186.060606 318.538007
  L 181.010101 309.690593
  L 175.959596 318.024975
  L 170.909091 308.675308
  L 165.858586 343.812038
  L 160.808081 350.972847
  L 155.757576 340.532901
  L 150.707071 366.230326
  L 145.656566 282.310010
  L 140.606061 314.914192
  L 135.555556 339.624547
  L 130.505051 317.299828
  L 125.454545 354.518266
  L 120.404040 341.808974
  L 115.353535 295.206416
  L 110.303030 292.731423
  L 105.252525 268.221621
  L 100.202020 267.633518
  L 95.151515 320.761847
  L 90.101010 245.787847
  L 85.050505 281.113444
Z" fill="rgb(0,191,196)" fill-opacity="0.2"/>
<path d="M 85.050505 490.771337
  L 90.101010 426.476387
  L 95.151515 390.714286
  L 100.202020 412.932464
  L 105.252525 412.828091
  L 110.303030 435.222734
  L 115.353535 405.766408
  L 120.404040 406.924281
  L 125.454545 428.124098
  L 130.505051 410.948122
  L 135.555556 434.069339
  L 140.606061 411.050987
  L 145.656566 395.637509
  L 150.707071 397.533364
  L 155.757576 415.981248
  L 160.808081 408.584264
  L 165.858586 427.021400
  L 170.909091 423.236410
  L 175.959596 407.950311
  L 181.010101 413.685453
  L 186.060606 408.917314
  L 191.111111 405.780850
  L 196.161616 403.046949
  L 201.212121 404.794145
  L 206.262626 417.248958
  L 211.313131 416.681548
  L 216.363636 423.134169
  L 221.414141 426.417366
  L 226.464646 409.038777
  L 231.515152 413.134645
  L 236.565657 409.861111
  L 241.616162 379.880842
  L 246.666667 420.227244
  L 251.717172 407.554219
  L 256.767677 415.720680
  L 261.818182 414.678995
  L 266.868687 434.020979
  L 271.919192 394.169832
  L 276.969697 416.134454
  L 282.020202 381.658163
  L 287.070707 431.668170
  L 292.121212 417.793520
  L 297.171717 413.013742
  L 302.222222 390.016420
  L 307.272727 409.518548
  L 312.323232 389.625996
  L 317.373737 411.825998
  L 322.424242 402.998252
  L 327.474747 412.195970
  L 332.525253 386.626467
  L 337.575758 422.704830
  L 342.626263 398.110851
  L 347.676768 411.896829
  L 352.727273 396.972132
  L 357.777778 406.827054
  L 362.828283 406.397660
  L 367.878788 418.295850
  L 372.929293 410.889637
  L 377.979798 412.741792
  L 383.030303 409.720257
  L 388.080808 425.376202
  L 393.131313 405.311646
  L 398.181818 411.856945
  L 403.232323 407.574463
  L 408.282828 393.913275
  L 413.333333 389.271567
  L 418.383838 424.941301
  L 423.434343 412.671958
  L 428.484848 417.137610
  L 433.535354 424.666977
  L 438.585859 408.750747
  L 443.636364 415.737882
  L 448.686869 425.878611
  L 453.737374 396.019384
  L 458.787879 403.073855
  L 463.838384 418.138925
  L 468.888889 427.740020
  L 473.939394 411.002331
  L 478.989899 401.412106
  L 484.040404 395.215195
  L 489.090909 410.079033
  L 494.141414 404.706202
  L 499.191919 395.085494
  L 504.242424 377.174840
  L 509.292929 392.650313
  L 514.343434 397.307029
  L 519.393939 422.743369
  L 524.444444 412.100840
  L 529.494949 383.345828
  L 534.545455 417.262141
  L 539.595960 381.079734
  L 544.646465 402.736031
  L 549.696970 405.488232
  L 554.747475 383.580507
  L 559.797980 403.296589
  L 564.848485 379.020325
  L 569.898990 388.670700
  L 574.949495 403.928945
  L 580.000000 416.549776
" stroke="rgb(248,118,109)" stroke-width="2" fill-opacity="0"/>
<path d="M 85.050505 383.030303
  L 90.101010 337.864879
  L 95.151515 425.864662
  L 100.202020 366.796537
  L 105.252525 358.526505
  L 110.303030 387.076101
  L 115.353535 391.355311
  L 120.404040 443.797693
  L 125.454545 453.194222
  L 130.505051 409.670330
  L 135.555556 436.142457
  L 140.606061 404.005891
  L 145.656566 364.310284
  L 150.707071 460.014075
  L 155.757576 431.000351
  L 160.808081 440.480641
  L 165.858586 433.708791
  L 170.909091 388.962986
  L 175.959596 398.452381
  L 181.010101 390.291859
  L 186.060606 399.117208
  L 191.111111 410.975955
  L 196.161616 385.516266
  L 201.212121 438.500815
  L 206.262626 385.937257
  L 211.313131 424.737529
  L 216.363636 408.379674
  L 221.414141 378.786181
  L 226.464646 426.740638
  L 231.515152 448.358914
  L 236.565657 441.117420
  L 241.616162 378.576022
  L 246.666667 391.915159
  L 251.717172 418.879870
  L 256.767677 407.903091
  L 261.818182 421.378561
  L 266.868687 378.360008
  L 271.919192 371.777188
  L 276.969697 407.838828
  L 282.020202 427.960564
  L 287.070707 368.252357
  L 292.121212 443.636364
  L 297.171717 387.718755
  L 302.222222 368.335518
  L 307.272727 410.827068
  L 312.323232 386.339096
  L 317.373737 376.556122
  L 322.424242 388.094754
  L 327.474747 384.073437
  L 332.525253 412.929782
  L 337.575758 388.425627
  L 342.626263 411.507234
  L 347.676768 370.305158
  L 352.727273 423.546890
  L 357.777778 412.165564
  L 362.828283 390.981535
  L 367.878788 386.841046
  L 372.929293 384.187192
  L 377.979798 373.575728
  L 383.030303 412.696415
  L 388.080808 421.378561
  L 393.131313 399.503505
  L 398.181818 375.566502
  L 403.232323 394.020345
  L 408.282828 399.216182
  L 413.333333 416.522600
  L 418.383838 375.118047
  L 423.434343 417.243402
  L 428.484848 380.859599
  L 433.535354 400.896965
  L 438.585859 395.038637
  L 443.636364 426.320346
  L 448.686869 423.898716
  L 453.737374 368.792323
  L 458.787879 394.341847
  L 463.838384 379.945956
  L 468.888889 337.286794
  L 473.939394 365.194175
  L 478.989899 416.332296
  L 484.040404 386.368330
  L 489.090909 417.599863
  L 494.141414 405.342466
  L 499.191919 374.771969
  L 504.242424 425.306122
  L 509.292929 370.637656
  L 514.343434 368.088643
  L 519.393939 399.299905
  L 524.444444 402.533137
  L 529.494949 355.104206
  L 534.545455 366.177106
  L 539.595960 394.387599
  L 544.646465 376.157743
  L 549.696970 382.732777
  L 554.747475 385.733351
  L 559.797980 382.380952
  L 564.848485 370.579808
  L 569.898990 361.571275
  L 574.949495 364.518113
  L 580.000000 202.160944
" stroke="rgb(0,191,196)" stroke-width="2" fill-opacity="0"/>
<text x="650" y="650" text-anchor="end">--OT 2,0,0,98</text>
<line x1="90.000000" y1="580" x2="90.000000" y2="80" stroke-dasharray="5 1" stroke="rgb(248,118,109)" stroke-width="1" />
<line x1="570.000000" y1="580" x2="570.000000" y2="80" stroke-dasharray="5 1" stroke="rgb(0,191,196)" stroke-width="1" />
<rect x="590" y="310" width="20" height="20" fill="rgb(248,118,109)" />
<text x="615" y="320" text-anchor="start" dominant-baseline="middle">#1</text>
<rect x="590" y="330" width="20" height="20" fill="rgb(0,191,196)" />
<text x="615" y="340" text-anchor="start" dominant-baseline="middle">#2</text>
</svg>
